<?xml version="1.0" encoding="UTF-8" standalone="no" ?>
<!DOCTYPE svg PUBLIC "-//W3C//DTD SVG 1.1//EN" "http://www.w3.org/Graphics/SVG/1.1/DTD/svg11.dtd">
<svg xmlns="http://www.w3.org/2000/svg" xmlns:xlink="http://www.w3.org/1999/xlink" version="1.1" width="1080" height="1080" viewBox="0 0 1080 1080" xml:space="preserve">
<desc>Created with Fabric.js 5.2.4</desc>
<defs>
</defs>
<g transform="matrix(1 0 0 1 540 540)" id="eabbe3d5-7e4b-4c5c-8eee-e50b2f127cf6"  >
<rect style="stroke: none; stroke-width: 1; stroke-dasharray: none; stroke-linecap: butt; stroke-dashoffset: 0; stroke-linejoin: miter; stroke-miterlimit: 4; fill: rgb(255,255,255); fill-rule: nonzero; opacity: 1; visibility: hidden;" vector-effect="non-scaling-stroke"  x="-540" y="-540" rx="0" ry="0" width="1080" height="1080" />
</g>
<g transform="matrix(1 0 0 1 540 540)" id="9300d6fa-6ba7-40c8-9c7a-4d2d33d84224"  >
</g>
<g transform="matrix(4.08 0 0 5.16 540 540)"  >
<path style="stroke: rgb(118,8,8); stroke-width: 0; stroke-dasharray: none; stroke-linecap: butt; stroke-dashoffset: 0; stroke-linejoin: miter; stroke-miterlimit: 4; fill: rgb(55,96,176); fill-rule: nonzero; opacity: 1;" vector-effect="non-scaling-stroke"  transform=" translate(-118.4, -80.07)" d="M 236.8 105.4 C 236.60000000000002 99 229.9 90.2 226.60000000000002 84.5 C 224.00000000000003 80.9 221.70000000000002 77.2 219.70000000000002 73.3 C 218.50000000000003 70.2 217.3 67.2 216.00000000000003 64.1 C 207.20000000000002 41.099999999999994 204.00000000000003 43.39999999999999 182.3 35.8 C 165.8 30 149.4 24.1 132.4 20 C 114.10000000000001 14.8 94.80000000000001 12 77.7 3.3000000000000007 C 72.4 -0.2999999999999994 68.7 -0.4999999999999991 66.7 0.6000000000000005 C 65.2 0.6000000000000005 63.400000000000006 0.8000000000000005 61.300000000000004 1.4000000000000006 C 44.3 5 28 12.5 12.7 21 C 6.5 24.7 -0.9 28.3 0.1 32.8 C 0.1 32.8 0.1 32.9 0.1 32.9 C 2.6 47.3 24.2 66 33.4 78.3 C 55.2 103.19999999999999 66.9 136.4 90.1 159.8 C 94.89999999999999 161.20000000000002 99.39999999999999 157.8 103.8 156.20000000000002 C 115.2 151.20000000000002 127.19999999999999 147.10000000000002 138.9 142.4 C 161.6 133.70000000000002 185.5 127 208.4 118.80000000000001 C 215.5 116.4 222.6 113.70000000000002 229.70000000000002 111.20000000000002 C 230.3 111.00000000000001 230.9 110.60000000000002 231.3 110.20000000000002 C 233.7 109.9 236.3 107.8 236.8 105.4 L 236.8 105.4 z M 83.4 138.2 C 83.60000000000001 138 83.7 137.79999999999998 83.9 137.6 C 84.4 137 84.9 136.4 85.4 135.7 C 86 137.39999999999998 86.7 139.1 87.30000000000001 140.79999999999998 C 87.00000000000001 141.29999999999998 86.70000000000002 141.79999999999998 86.30000000000001 142.29999999999998 C 85.3 141 84.3 139.6 83.4 138.2 z M 76.6 128 C 76.69999999999999 128 76.8 127.9 76.89999999999999 127.8 C 77.99999999999999 126.39999999999999 79.39999999999999 125.1 80.49999999999999 123.8 C 81.09999999999998 125.3 81.79999999999998 126.89999999999999 82.39999999999999 128.4 C 81.6 129.4 80.69999999999999 130.4 79.89999999999999 131.3 C 79.6 131.60000000000002 79.6 132.10000000000002 79.89999999999999 132.4 C 80.99999999999999 133.20000000000002 81.8 131.20000000000002 82.49999999999999 130.6 C 82.69999999999999 130.4 82.79999999999998 130.2 82.99999999999999 130 C 83.49999999999999 131.4 84.09999999999998 132.7 84.59999999999998 134.1 C 83.89999999999998 135.1 83.19999999999997 136 82.39999999999998 136.9 C 80.5 133.9 78.6 131 76.6 128 L 76.6 128 z M 73.3 122.7 C 74.5 121.4 75.6 120.10000000000001 76.8 118.8 C 77 118.5 77.5 118 78 117.39999999999999 C 78.4 118.39999999999999 78.8 119.3 79.2 120.3 C 79.5 120.89999999999999 79.7 121.6 80 122.2 C 78.7 123.7 77.3 125.2 75.9 126.8 C 75 125.4 74.2 124.1 73.3 122.7 L 73.3 122.7 z M 69.4 116.4 C 70.80000000000001 114.9 72.2 113.30000000000001 73.60000000000001 111.80000000000001 C 74.10000000000001 111.20000000000002 74.7 110.60000000000001 75.2 109.9 C 75.9 111.9 76.60000000000001 113.80000000000001 77.4 115.80000000000001 C 76.7 116.60000000000001 75.9 117.50000000000001 75.2 118.30000000000001 C 74.3 119.30000000000001 73.4 120.30000000000001 72.5 121.4 C 71.5 119.7 70.4 118.1 69.4 116.4 z M 65.6 110.4 C 65.89999999999999 110 66.19999999999999 109.7 66.39999999999999 109.5 C 68.49999999999999 107.3 70.6 105.1 72.69999999999999 102.8 C 73.29999999999998 104.6 73.89999999999999 106.39999999999999 74.6 108.2 C 73.39999999999999 109.9 71.69999999999999 111.4 70.39999999999999 113.10000000000001 C 69.8 113.80000000000001 69.19999999999999 114.4 68.6 115.10000000000001 C 67.6 113.5 66.6 111.9 65.6 110.4 L 65.6 110.4 z M 62 104.5 C 62.3 104.1 62.6 103.7 62.9 103.5 C 64.4 102 66 100.4 67.5 98.9 C 68.4 98 69.4 97 70.3 96 C 70.89999999999999 97.7 71.5 99.4 72.1 101.1 C 69.8 103.8 67.19999999999999 106.3 64.69999999999999 108.89999999999999 C 63.9 107.5 62.9 106 62 104.5 L 62 104.5 z M 57.8 97.9 C 61.099999999999994 95 64.3 92.10000000000001 67.6 89.30000000000001 C 68.3 91.00000000000001 69 92.80000000000001 69.69999999999999 94.60000000000001 C 66.99999999999999 97.60000000000001 63.999999999999986 100.4 61.09999999999999 103.30000000000001 C 60.1 101.4 58.9 99.6 57.8 97.9 z M 54.4 92.5 C 57.699999999999996 89.3 61 86.1 64.3 82.9 L 64.2 83 C 64.4 82.8 64.60000000000001 82.6 64.8 82.4 C 65.6 84.2 66.3 85.9 67 87.7 C 66.7 88 66.5 88.2 66.2 88.4 C 63.1 91.10000000000001 60 93.80000000000001 56.900000000000006 96.60000000000001 C 56.1 95.2 55.2 93.9 54.4 92.5 L 54.4 92.5 z M 50.1 86.2 C 51.9 84.60000000000001 53.7 83 55.5 81.4 C 57.6 79.5 59.8 77.5 61.8 75.5 C 62.599999999999994 77.3 63.4 79.2 64.1 81 C 63.99999999999999 81.1 63.89999999999999 81.1 63.89999999999999 81.2 C 60.39999999999999 84.5 56.89999999999999 87.9 53.49999999999999 91.3 C 52.4 89.6 51.3 87.9 50.1 86.2 L 50.1 86.2 z M 40.9 74 C 43.9 71.4 47 68.8 50 66.2 C 52 64.5 54 62.800000000000004 56 61.1 C 56.6 62.800000000000004 57.3 64.5 58 66.2 C 54.4 69.5 50.8 72.9 47.2 76.3 C 46.400000000000006 77.1 45.6 77.89999999999999 44.7 78.6 C 43.5 77.1 42.2 75.5 40.9 74 z M 28.1 59.3 C 30.200000000000003 57.5 32.5 55.8 34.7 54.099999999999994 C 35.6 53.39999999999999 36.400000000000006 52.699999999999996 37.300000000000004 51.99999999999999 C 39.300000000000004 52.79999999999999 41.300000000000004 53.599999999999994 43.400000000000006 54.29999999999999 C 40.900000000000006 56.49999999999999 38.400000000000006 58.69999999999999 35.800000000000004 60.79999999999999 C 34.6 61.79999999999999 33.400000000000006 62.79999999999999 32.2 63.79999999999999 C 30.8 62.3 29.4 60.8 28.1 59.3 z M 24 54.5 C 24.2 54.5 24.3 54.5 24.5 54.3 C 26.1 53 27.7 51.699999999999996 29.3 50.4 C 29.5 50.1 30 49.699999999999996 30.6 49.3 C 32.300000000000004 50 34 50.699999999999996 35.7 51.3 C 33.400000000000006 53.199999999999996 31.1 55 28.800000000000004 56.8 C 28.500000000000004 57.099999999999994 27.800000000000004 57.599999999999994 27.200000000000003 58.099999999999994 C 26.1 56.9 25 55.7 24 54.5 z M 14.4 42.5 C 16.8 43.6 19.2 44.6 21.6 45.6 C 21.400000000000002 45.800000000000004 21.200000000000003 45.9 21 46 C 20.2 46.6 19.4 47.3 18.5 47.9 C 17.2 46.2 15.8 44.4 14.4 42.5 z M 23.4 24.9 C 25.4 27.599999999999998 27.599999999999998 30 29.599999999999998 32.8 C 32.199999999999996 36.199999999999996 34.699999999999996 39.599999999999994 37.3 43 C 35.3 42.2 33.3 41.4 31.299999999999997 40.6 C 29.699999999999996 38.9 28.099999999999998 37.1 26.499999999999996 35.4 C 24.099999999999998 32.699999999999996 21.699999999999996 30 19.299999999999997 27.2 C 20.6 26.4 22 25.6 23.4 24.9 z M 27.4 22.8 C 27.5 22.900000000000002 27.5 23 27.599999999999998 23.1 C 33.3 30.700000000000003 38.8 38.5 44.7 45.8 C 43.1 45.199999999999996 41.5 44.599999999999994 39.900000000000006 44 C 39.400000000000006 43.4 38.900000000000006 42.8 38.50000000000001 42.2 C 35.00000000000001 37.7 31.700000000000006 32.900000000000006 28.10000000000001 28.400000000000002 C 27.000000000000007 26.900000000000002 25.800000000000008 25.6 24.70000000000001 24.1 C 25.6 23.7 26.5 23.2 27.4 22.8 L 27.4 22.8 z M 41.4 16.4 C 46.3 23.9 51.4 31.2 56.3 38.599999999999994 C 56 39.699999999999996 55.699999999999996 40.8 55.4 41.89999999999999 C 53.5 39.29999999999999 51.5 36.69999999999999 49.6 34.099999999999994 C 45.7 28.699999999999996 42 23.199999999999996 38.5 17.599999999999994 C 39.5 17.2 40.5 16.8 41.4 16.4 z M 46.2 14.6 C 46.6 15.2 47.1 15.799999999999999 47.5 16.4 C 51.2 21.4 54.5 26.7 57.7 32 C 57.800000000000004 32.2 58 32.3 58.2 32.3 C 58.2 32.3 58.2 32.3 58.2 32.4 C 57.7 33.9 57.300000000000004 35.4 56.900000000000006 36.8 C 56.900000000000006 36.8 56.900000000000006 36.8 56.900000000000006 36.699999999999996 C 52.300000000000004 29.699999999999996 47.50000000000001 22.799999999999997 42.900000000000006 15.799999999999997 C 43.9 15.4 45.1 15 46.2 14.6 z M 51 13 C 54.2 17.2 57.4 21.4 60.4 25.8 C 59.8 27.400000000000002 59.3 29 58.8 30.700000000000003 C 55.5 24.900000000000002 51.5 19.500000000000004 47.8 14.000000000000004 C 48.8 13.7 49.9 13.3 51 13 L 51 13 z M 57 11.3 C 58.7 14.3 60.6 17.200000000000003 62.4 20.1 C 61.9 21.400000000000002 61.4 22.8 61 24.1 C 58.3 20.200000000000003 55.5 16.3 52.5 12.500000000000002 C 54 12.1 55.5 11.7 57 11.3 L 57 11.3 z M 76.8 12.4 C 74.3 12.6 71.89999999999999 12.8 69.39999999999999 13 C 69.8 11.9 70.3 10.9 70.69999999999999 9.8 C 70.79999999999998 9.8 70.99999999999999 9.700000000000001 71.1 9.700000000000001 C 73 10.6 74.9 11.5 76.8 12.4 z M 86.6 16.3 C 84.69999999999999 16.400000000000002 82.8 16.5 80.89999999999999 16.7 C 76.69999999999999 17 72.39999999999999 17.3 68.19999999999999 17.8 C 67.99999999999999 17.900000000000002 67.79999999999998 17.900000000000002 67.49999999999999 17.900000000000002 C 67.89999999999999 16.8 68.29999999999998 15.700000000000003 68.79999999999998 14.600000000000001 C 69.29999999999998 14.600000000000001 69.89999999999998 14.500000000000002 70.39999999999998 14.500000000000002 C 73.49999999999997 14.200000000000001 76.59999999999998 14.100000000000001 79.69999999999997 13.700000000000001 C 82 14.5 84.3 15.5 86.6 16.3 L 86.6 16.3 z M 93.6 18.7 C 92.89999999999999 19.2 92.19999999999999 19.8 91.5 20.3 C 90.9 20.7 90.4 21.1 89.9 21.5 C 85.30000000000001 21.8 80.7 22.4 76.10000000000001 22.7 C 72.4 23 68.9 23.3 65.2 23.8 C 65.60000000000001 22.6 66.10000000000001 21.400000000000002 66.5 20.2 C 66.6 19.9 66.7 19.7 66.8 19.4 C 70.39999999999999 18.9 74.1 18.7 77.8 18.4 C 82 18.099999999999998 86.3 17.7 90.5 17.7 C 91.6 18 92.6 18.4 93.6 18.7 L 93.6 18.7 z M 164 38.1 C 161.9 40.1 159.9 42.2 158 44.4 C 157.9 43.4 157.7 42.3 157.6 41.3 C 158.29999999999998 40.599999999999994 158.9 40 159.6 39.3 C 160.29999999999998 38.599999999999994 161 38 161.79999999999998 37.4 C 162.5 37.7 163.3 37.9 164 38.1 L 164 38.1 z M 169.5 39.9 C 168.1 41.1 166.8 42.3 165.4 43.5 C 164.70000000000002 44.3 161.20000000000002 47.5 158.9 50 C 158.70000000000002 49.1 158.6 48.2 158.4 47.3 C 158.3 46.8 158.20000000000002 46.3 158.20000000000002 45.8 C 158.50000000000003 45.9 158.70000000000002 45.8 158.9 45.599999999999994 C 160.70000000000002 43.49999999999999 162.6 41.49999999999999 164.6 39.599999999999994 C 164.79999999999998 39.39999999999999 165.1 38.99999999999999 165.6 38.699999999999996 C 166.9 39.1 168.2 39.5 169.5 39.9 L 169.5 39.9 z M 175.6 42.1 C 173.6 43.6 172 45.6 170.2 47.300000000000004 C 167.1 50.7 163.79999999999998 54.1 160.7 57.5 C 160.2 55.7 159.7 53.9 159.29999999999998 52.1 C 162.89999999999998 47.9 166.89999999999998 44 171.2 40.5 C 172.7 41 174.1 41.6 175.6 42.1 L 175.6 42.1 z M 187.4 46.5 C 187.3 46.5 187.3 46.5 187.4 46.5 C 185.3 48.5 183.4 50.6 181.3 52.6 C 176.70000000000002 57.2 172 61.6 167.5 66.3 C 166.5 67.39999999999999 165.5 68.6 164.5 69.7 C 164 68.10000000000001 163.4 66.5 162.9 64.8 C 163.1 64.6 163.3 64.3 163.5 64.2 C 165 62.7 166.5 61.1 168 59.5 C 172.8 54.5 177.7 49.5 182.6 44.6 C 184.2 45.2 185.8 45.8 187.4 46.5 L 187.4 46.5 z M 193.7 49 C 191.79999999999998 50.8 189.79999999999998 52.7 187.89999999999998 54.5 C 181.49999999999997 60.4 175.49999999999997 66.7 169.29999999999998 72.8 C 168.29999999999998 73.7 167.39999999999998 74.7 166.49999999999997 75.6 C 166.09999999999997 74.1 165.59999999999997 72.69999999999999 165.09999999999997 71.19999999999999 C 167.09999999999997 68.89999999999999 169.09999999999997 66.69999999999999 171.19999999999996 64.49999999999999 C 177.19999999999996 58.79999999999998 182.89999999999995 52.59999999999999 188.99999999999997 46.999999999999986 C 190.6 47.7 192.1 48.4 193.7 49 L 193.7 49 z M 199.1 51.3 C 198.9 51.5 198.7 51.8 198.5 52 C 196 54.9 193.4 57.8 190.8 60.6 C 183.70000000000002 68.1 176.5 75.6 168.10000000000002 81.5 C 167.70000000000002 80.1 167.3 78.7 166.90000000000003 77.3 C 168.80000000000004 75.39999999999999 170.70000000000005 73.5 172.60000000000002 71.6 C 180.00000000000003 64.19999999999999 187.40000000000003 56.699999999999996 195.20000000000002 49.599999999999994 C 196.6 50.2 197.8 50.8 199.1 51.3 L 199.1 51.3 z M 166.9 58.5 L 166.9 58.5 L 166.9 58.5 C 166 59.4 165.1 60.4 164.1 61.4 C 163.5 62 163 62.6 162.4 63.1 C 162 61.800000000000004 161.6 60.4 161.20000000000002 59.1 C 161.70000000000002 58.6 162.20000000000002 58 162.70000000000002 57.5 C 167.4 52.7 171.70000000000002 47.5 176.70000000000002 43.1 C 176.9 43 177.10000000000002 42.800000000000004 177.10000000000002 42.6 C 178.50000000000003 43.1 179.8 43.6 181.10000000000002 44.1 C 176.3 48.7 171.6 53.7 166.9 58.5 L 166.9 58.5 z M 159.5 37.4 C 158.8 38.1 158 38.699999999999996 157.3 39.4 C 157.20000000000002 38.5 157 37.6 156.8 36.699999999999996 C 156.70000000000002 36.3 156.60000000000002 35.99999999999999 156.5 35.8 C 157.7 36.199999999999996 158.8 36.5 160 36.9 C 159.9 37.1 159.7 37.2 159.5 37.4 z M 162.1 75 C 162.7 77 163.29999999999998 79 163.9 81 C 150.20000000000002 78.1 136.4 75.7 123 71.7 C 120.5 70.9 118 70.10000000000001 115.6 69.4 C 116.69999999999999 68.30000000000001 117.69999999999999 67.10000000000001 118.69999999999999 66.10000000000001 C 120.19999999999999 64.60000000000001 121.6 63.10000000000001 123.1 61.70000000000001 C 132.5 53.20000000000001 142.7 45.70000000000001 153.2 38.70000000000001 C 154.3 51.1 157.9 63.1 162.1 75 L 162.1 75 z M 81.6 28.3 C 76.19999999999999 28.7 70.8 29 65.3 29.5 C 64.89999999999999 29.6 64.1 29.6 63.3 29.7 C 63.8 28.3 64.3 26.8 64.8 25.4 C 65 25.4 65.2 25.299999999999997 65.39999999999999 25.299999999999997 C 70.89999999999999 24.599999999999998 76.49999999999999 24.199999999999996 82.1 23.699999999999996 C 84 23.499999999999996 85.89999999999999 23.299999999999997 87.8 23.199999999999996 C 85.7 24.8 83.6 26.5 81.6 28.3 L 81.6 28.3 z M 62.7 31.3 C 63.6 31.2 64.4 31.1 65.3 31 C 67.7 30.8 70.2 30.6 72.7 30.4 C 75 30.2 77.3 30.099999999999998 79.60000000000001 29.9 C 77.60000000000001 31.599999999999998 75.60000000000001 33.4 73.60000000000001 35.199999999999996 C 69.4 35.4 65.30000000000001 35.699999999999996 61.10000000000001 36.199999999999996 C 61.7 34.6 62.2 32.9 62.7 31.3 L 62.7 31.3 z M 60.5 46.8 C 59.8 46.8 58.7 46.699999999999996 58.6 47.599999999999994 C 58.6 47.8 58.7 47.99999999999999 58.9 48.099999999999994 C 58.5 48.39999999999999 58.199999999999996 48.699999999999996 57.8 48.99999999999999 C 58.199999999999996 47.199999999999996 58.599999999999994 45.49999999999999 59.099999999999994 43.699999999999996 C 59.199999999999996 43.99999999999999 59.49999999999999 44.199999999999996 59.8 44.199999999999996 C 61.099999999999994 44.099999999999994 62.4 43.99999999999999 63.699999999999996 43.99999999999999 C 62.7 45 61.6 45.9 60.5 46.8 L 60.5 46.8 z M 66.3 41.8 C 66 41.4 65.39999999999999 41.3 64.89999999999999 41.599999999999994 C 63.69999999999999 41.8 62.39999999999999 41.89999999999999 61.19999999999999 42.099999999999994 C 60.69999999999999 42.099999999999994 60.09999999999999 42.099999999999994 59.499999999999986 42.199999999999996 C 59.899999999999984 40.699999999999996 60.29999999999998 39.199999999999996 60.69999999999999 37.8 C 64.39999999999999 37.4 68.1 37 71.89999999999999 36.8 C 70 38.5 68.2 40.1 66.3 41.8 L 66.3 41.8 z M 67.7 45.9 C 76.4 38.199999999999996 84.80000000000001 30.299999999999997 94.1 23.299999999999997 C 94.19999999999999 23.299999999999997 94.39999999999999 23.199999999999996 94.5 22.999999999999996 C 95.8 21.999999999999996 97.1 21.099999999999998 98.4 20.199999999999996 C 101.10000000000001 28.999999999999996 103.9 37.89999999999999 106.4 46.8 C 108 53.5 108.30000000000001 60.4 108.7 67.19999999999999 C 92.7 62.19999999999999 76.7 57.19999999999999 60.900000000000006 51.69999999999999 C 63.3 49.9 65.5 47.8 67.7 45.9 L 67.7 45.9 z M 66.6 9.3 C 66.1 10.600000000000001 65.5 11.9 65 13.200000000000001 C 64.7 12.700000000000001 64.4 12.100000000000001 64.1 11.600000000000001 C 63.8 11.000000000000002 63.49999999999999 10.500000000000002 63.199999999999996 9.900000000000002 C 64.3 9.7 65.4 9.5 66.6 9.3 z M 61 10.4 C 61.9 12.200000000000001 63.3 14.2 64.2 15.5 C 63.800000000000004 16.5 63.5 17.4 63.1 18.4 C 61.6 15.899999999999999 60 13.499999999999998 58.6 10.999999999999998 C 59.3 10.7 60.1 10.5 61 10.4 L 61 10.4 z M 41.5 24.9 C 45.6 31.5 50.4 37.599999999999994 54.9 43.9 C 54.9 44.1 54.8 44.199999999999996 54.8 44.4 C 54.599999999999994 45.3 54.199999999999996 46.6 53.9 48 C 47.1 38.7 40.7 29.1 33.7 20 C 33.7 20 33.7 20 33.7 20.1 C 33.7 20.1 33.7 20.1 33.7 20.200000000000003 C 33.7 20.1 33.6 20.000000000000004 33.5 19.900000000000002 C 34.7 19.3 35.9 18.8 37.2 18.3 C 38.2 20.6 40.2 22.6 41.5 24.9 z M 32.3 20.6 C 32.4 20.900000000000002 32.699999999999996 21.200000000000003 32.9 21.5 C 39.699999999999996 30.4 46 39.7 52.599999999999994 48.7 C 50.89999999999999 48.1 49.199999999999996 47.5 47.599999999999994 46.800000000000004 C 47.199999999999996 46.300000000000004 46.8 45.800000000000004 46.39999999999999 45.300000000000004 C 40.2 38 34.6 29.9 28.9 22.1 C 30 21.5 31.2 21 32.3 20.400000000000002 C 32.3 20.5 32.3 20.5 32.3 20.6 L 32.3 20.6 z M 19.4 29.5 C 22.2 32.7 25 35.9 27.9 39.1 C 25.9 38.300000000000004 23.9 37.4 21.9 36.5 C 19.7 34.2 17.299999999999997 31.9 15.2 29.4 C 16.099999999999998 28.9 17 28.4 17.9 27.799999999999997 C 18.5 28.6 19.2 29.2 19.4 29.5 z M 23.2 46.3 C 25.099999999999998 47.099999999999994 27.099999999999998 47.9 29 48.699999999999996 C 27.2 50.199999999999996 25.3 51.699999999999996 23.5 53.199999999999996 C 23.4 53.3 23.3 53.49999999999999 23.3 53.699999999999996 C 22.1 52.199999999999996 20.8 50.8 19.6 49.3 C 20.8 48.2 22 47.3 23.2 46.3 z M 42.6 56.9 C 43.4 56.199999999999996 44.1 55.6 44.9 54.9 C 46.699999999999996 55.6 48.4 56.199999999999996 50.199999999999996 56.9 C 47.599999999999994 58.9 45.099999999999994 60.8 42.49999999999999 62.8 C 40.199999999999996 64.5 37.89999999999999 66.3 35.699999999999996 68 C 34.8 67 33.9 66 32.99999999999999 65 C 36.2 62.2 39.5 59.7 42.6 56.9 L 42.6 56.9 z M 36.7 69.1 C 39.300000000000004 67.1 41.900000000000006 65.19999999999999 44.400000000000006 63.199999999999996 C 46.900000000000006 61.3 49.400000000000006 59.4 51.900000000000006 57.49999999999999 C 53.00000000000001 57.89999999999999 54.10000000000001 58.29999999999999 55.10000000000001 58.699999999999996 L 55.10000000000001 58.699999999999996 C 55.20000000000001 58.99999999999999 55.30000000000001 59.3 55.400000000000006 59.599999999999994 C 52.50000000000001 62.099999999999994 49.60000000000001 64.5 46.7 67 C 44.400000000000006 69 42.1 70.9 39.900000000000006 72.8 C 38.9 71.6 37.8 70.3 36.7 69.1 L 36.7 69.1 z M 60.1 60.4 C 76 66 92.1 71.1 108.3 76 C 107.89999999999999 76.8 107.7 77.8 107.3 78.6 C 105.89999999999999 82.69999999999999 104.7 86.8 103.3 90.89999999999999 C 98.1 106.89999999999999 93.6 123.19999999999999 91 139.79999999999998 C 90 137.29999999999998 89.1 134.7 88.2 132.1 C 83.60000000000001 120.69999999999999 78.9 109.3 75.2 97.6 C 70.7 85 64.6 73 60.1 60.4 L 60.1 60.4 z M 93.9 147.5 C 93.9 147.4 93.9 147.4 93.80000000000001 147.3 C 94.00000000000001 146.10000000000002 94.20000000000002 145 94.4 143.8 C 94.80000000000001 144.4 95.2 145 95.60000000000001 145.60000000000002 C 95.1 146.2 94.5 146.8 93.9 147.5 z M 87.9 142.7 C 88.4 144.1 89 145.6 89.5 147 C 88.7 145.9 87.9 144.8 87.2 143.7 C 87.4 143.3 87.6 143 87.9 142.7 z M 96.7 144.4 C 96 143.4 95.4 142.5 94.8 141.4 C 95 140.1 95.2 138.9 95.39999999999999 137.6 C 96.49999999999999 139.1 97.69999999999999 140.5 98.8 142 C 98.1 142.8 97.4 143.6 96.7 144.4 L 96.7 144.4 z M 99.8 140.9 C 98.5 139.1 97.1 137.4 95.8 135.6 C 96 134.5 96.2 133.4 96.39999999999999 132.2 C 96.49999999999999 131.89999999999998 96.49999999999999 131.6 96.6 131.29999999999998 C 96.69999999999999 131.49999999999997 96.89999999999999 131.6 96.89999999999999 131.7 C 98.69999999999999 133.89999999999998 100.39999999999999 136.1 102.19999999999999 138.29999999999998 C 101.4 139.2 100.6 140 99.8 140.9 L 99.8 140.9 z M 103.3 137.2 C 101.2 134.6 99.1 132 97 129.39999999999998 C 97.2 128.29999999999998 97.5 127.19999999999997 97.8 125.99999999999997 C 98.1 126.29999999999997 98.3 126.59999999999997 98.6 126.89999999999998 C 100.89999999999999 129.59999999999997 103.1 132.39999999999998 105.39999999999999 135.09999999999997 C 104.7 135.8 104 136.5 103.3 137.2 z M 106.4 134.1 C 103.60000000000001 130.79999999999998 100.80000000000001 127.5 98.2 124.1 C 98.5 122.69999999999999 98.9 121.3 99.2 119.89999999999999 C 99.60000000000001 120.39999999999999 100 120.89999999999999 100.5 121.39999999999999 C 103.4 124.8 106.1 128.29999999999998 109.1 131.6 C 108.2 132.4 107.3 133.2 106.4 134.1 L 106.4 134.1 z M 110.2 130.5 C 109.60000000000001 129.8 109 129.1 108.4 128.4 C 105.5 125 102.60000000000001 121.5 99.7 118 C 99.7 118 99.7 118 99.7 118 C 100 116.7 100.4 115.5 100.7 114.2 C 104.5 119 108.5 123.7 112.60000000000001 128.2 C 111.8 129 110.9 129.8 110.2 130.5 L 110.2 130.5 z M 113.7 127.2 C 112.5 125.9 111.3 124.5 110.2 123.2 C 107.2 119.60000000000001 104.10000000000001 116.10000000000001 101.2 112.4 C 101.60000000000001 111 102 109.60000000000001 102.3 108.2 C 104.2 110.8 107.3 113.10000000000001 109.3 115.5 C 111.89999999999999 118.3 114.5 121.1 117.2 123.9 C 116 125 114.8 126.1 113.7 127.2 z M 118.3 122.9 C 117.39999999999999 122 116.5 121.10000000000001 115.7 120.10000000000001 C 111.60000000000001 115.60000000000001 107.2 111.30000000000001 103.10000000000001 106.80000000000001 C 103.00000000000001 106.60000000000001 102.9 106.4 102.80000000000001 106.4 C 103.20000000000002 105 103.60000000000001 103.60000000000001 104.00000000000001 102.2 C 105.60000000000001 104.2 107.30000000000001 106 109.00000000000001 107.9 C 112.90000000000002 112.2 116.60000000000001 116.60000000000001 120.70000000000002 120.7 C 119.8 121.5 119.1 122.2 118.3 122.9 z M 121.7 119.8 C 120.60000000000001 118.7 119.60000000000001 117.6 118.60000000000001 116.5 C 113.9 111.2 108.9 105.9 104.50000000000001 100.4 C 104.90000000000002 99.2 105.20000000000002 98 105.60000000000001 96.80000000000001 C 111.9 103.60000000000001 117.9 110.80000000000001 124.20000000000002 117.4 C 124.10000000000002 117.5 124.10000000000002 117.5 124.00000000000001 117.60000000000001 C 123.2 118.4 122.4 119.1 121.7 119.8 z M 125.3 116.4 C 123.2 114.30000000000001 121.2 112.10000000000001 119.3 109.9 C 115 105 110.7 100 106.1 95.4 C 106.5 94 107 92.7 107.39999999999999 91.30000000000001 C 107.39999999999999 91.30000000000001 107.39999999999999 91.30000000000001 107.49999999999999 91.4 C 110.39999999999999 94.5 113.49999999999999 97.5 116.39999999999999 100.60000000000001 C 120.49999999999999 104.80000000000001 124.3 109.30000000000001 128.6 113.30000000000001 C 127.4 114.4 126.3 115.4 125.3 116.4 z M 129.6 112.3 C 122.1 105 115.19999999999999 97.1 107.89999999999999 89.69999999999999 C 108.3 88.39999999999999 108.8 87.19999999999999 109.19999999999999 85.89999999999999 C 109.49999999999999 86.19999999999999 109.79999999999998 86.49999999999999 110.1 86.8 C 113.19999999999999 89.8 115.89999999999999 93 118.8 96.2 C 122.89999999999999 101 127 106.10000000000001 131.5 110.60000000000001 C 130.8 111.2 130.2 111.7 129.6 112.3 L 129.6 112.3 z M 132.5 109.6 C 130.9 108 129.5 106.39999999999999 128 104.69999999999999 C 122 97.79999999999998 116.2 90.69999999999999 109.7 84.19999999999999 C 110.10000000000001 82.99999999999999 110.60000000000001 81.69999999999999 111.10000000000001 80.49999999999999 C 113.7 83.89999999999999 116.9 86.79999999999998 119.60000000000001 90.09999999999998 C 124.80000000000001 95.69999999999997 129.8 101.49999999999999 135.3 106.79999999999998 C 134.4 107.7 133.4 108.7 132.5 109.6 L 132.5 109.6 z M 136.5 105.8 C 135.6 105 134.8 104.1 133.9 103.3 C 126.4 95.3 118.7 87.3 111.80000000000001 78.9 C 112.00000000000001 78.4 112.20000000000002 77.80000000000001 112.4 77.30000000000001 C 113.4 77.60000000000001 114.4 77.9 115.4 78.20000000000002 C 122.80000000000001 87.00000000000001 130.70000000000002 95.60000000000002 139 103.60000000000002 C 138.1 104.2 137.3 105 136.5 105.8 L 136.5 105.8 z M 140 102.5 C 139.3 101.8 138.5 101.1 137.8 100.4 C 130.9 93.5 124.20000000000002 86.4 117.9 78.9 C 119.7 79.4 121.5 80 123.30000000000001 80.5 C 129.8 87 135.8 94 142.70000000000002 100.2 C 141.8 100.9 140.9 101.7 140 102.5 z M 143.8 99.1 C 141.60000000000002 97.1 139.5 95.1 137.4 93 C 133.6 89.1 130 85.2 126.2 81.3 C 128.3 81.89999999999999 130.5 82.6 132.6 83.2 C 134.2 85.5 136.4 87.4 138.1 89.5 C 140.6 92.2 142.9 95 145.6 97.5 C 145.1 98.1 144.4 98.6 143.8 99.1 L 143.8 99.1 z M 146.8 96.6 C 146.70000000000002 96.5 146.5 96.39999999999999 146.4 96.19999999999999 C 142.6 92.1 138.70000000000002 88.1 135.1 83.79999999999998 C 136.79999999999998 84.19999999999999 138.5 84.49999999999999 140.29999999999998 84.89999999999998 C 140.89999999999998 85.59999999999998 141.6 86.29999999999998 142.2 86.99999999999997 C 144.6 89.49999999999997 146.89999999999998 92.09999999999997 149.29999999999998 94.59999999999997 C 148.4 95.2 147.6 95.9 146.8 96.6 L 146.8 96.6 z M 150.4 93.6 C 150.3 93.5 150.20000000000002 93.39999999999999 150.1 93.3 C 147.7 90.6 145.1 88.1 142.79999999999998 85.39999999999999 C 144.6 85.69999999999999 146.29999999999998 86.1 148.1 86.39999999999999 C 148.2 86.8 148.6 87.3 148.79999999999998 87.49999999999999 C 149.99999999999997 88.99999999999999 151.2 90.39999999999999 152.6 91.89999999999999 C 151.8 92.5 151.1 93 150.4 93.6 L 150.4 93.6 z M 153.8 91 C 153.7 91 153.7 91 153.8 91 C 152.9 90 152.10000000000002 89 151.3 88.1 C 150.9 87.69999999999999 150.5 87.19999999999999 150.20000000000002 86.69999999999999 C 151.3 86.89999999999999 152.3 87.1 153.4 87.29999999999998 C 154 88.09999999999998 155 88.79999999999998 155.3 89.29999999999998 C 155.5 89.49999999999999 155.60000000000002 89.49999999999999 155.8 89.49999999999999 C 155.1 90 154.4 90.5 153.8 91 L 153.8 91 z M 156.3 88.3 C 156.20000000000002 88.1 156 88 155.9 87.8 C 156.5 87.89999999999999 157.1 88 157.70000000000002 88.2 C 157.3 88.5 156.9 88.8 156.50000000000003 89.10000000000001 C 156.5 88.8 156.5 88.5 156.3 88.3 L 156.3 88.3 z M 179 77.9 C 185.3 72.30000000000001 191.2 66.4 196.7 60.10000000000001 C 198.5 58.400000000000006 200 56.30000000000001 201.6 54.50000000000001 C 204.79999999999998 61.60000000000001 208.1 69.10000000000001 211.6 76.2 C 214.6 84 217.7 91.8 221.79999999999998 99.1 C 213.2 96.39999999999999 204.89999999999998 93 196.39999999999998 89.8 C 188.7 87 180.89999999999998 84.8 172.99999999999997 83 C 175.5 81.1 177.7 78.9 179 77.9 z M 152.2 34.5 C 151.39999999999998 34.9 150.5 35.4 149.7 36 C 136.5 45.1 123.49999999999999 54.6 112.6 66.4 C 112.3 60.7 112 54.900000000000006 110.89999999999999 49.300000000000004 C 109.8 43.1 107.6 37.2 105.8 31.200000000000003 C 104.8 28.200000000000003 104 25.1 103.1 22.000000000000004 C 103 21.800000000000004 103 21.600000000000005 102.89999999999999 21.300000000000004 C 105.8 22.000000000000004 108.69999999999999 22.700000000000003 111.6 23.400000000000006 C 125.1 26.9 138.8 30.5 152.2 34.5 L 152.2 34.5 z M 13.9 30.3 C 15.3 32 16.8 33.5 18.3 35 C 16 34 13.700000000000001 32.9 11.3 31.8 C 12.2 31.3 13 30.8 13.9 30.3 L 13.9 30.3 z M 45.6 79.8 C 45.9 79.5 46.2 79.2 46.4 79 C 49.5 76.1 52.6 73.1 55.7 70.2 C 56.6 69.4 57.5 68.5 58.5 67.7 C 59.4 69.8 60.2 71.9 61.1 74 C 58.5 76.5 55.800000000000004 79 53 81.5 C 51.7 82.7 50.4 83.8 49.1 85 C 48 83.4 46.800000000000004 81.7 45.6 80.1 C 45.7 80 45.7 79.9 45.6 79.8 L 45.6 79.8 z M 97.2 149.8 C 99 147.8 100.8 145.8 102.60000000000001 143.8 C 114.10000000000001 131.5 127 120.80000000000001 138.9 109.00000000000001 C 146.4 101.90000000000002 154.4 95.20000000000002 163 89.30000000000001 C 165.3 89.80000000000001 167.5 90.30000000000001 169.8 90.9 C 186.3 94.5 201.60000000000002 101.30000000000001 217.60000000000002 106.60000000000001 C 177.3 120.8 136.6 133 97.2 149.8 L 97.2 149.8 z" stroke-linecap="round" />
</g>
</svg>